# xmcd
#
# Track frame offsets:
#   150
#   28030
#   59535
#   94382
#   114012
#   130097
#   154020
#   177490
#   206630
#   229282
#   254290
#   289927
#
# Disc length: 4228 seconds
#
# Revision: 3
# Processed by: cddbd v1.5.1PL0 Copyright (c) Steve Scherf et al.
# Submitted via: Media_Universe 3.0
#
DISCID=ab10820c
DTITLE=Lionel Hampton - Jazz Masters - Lionel Hampton
DYEAR=1900
DGENRE=jazz
TTITLE0=Take the 'A' Train
TTITLE1=Cute
TTITLE2=The Man I Love
TTITLE3=Lullaby Of Birdland
TTITLE4=I'll Never Be The Same
TTITLE5=AppleCore
TTITLE6=This Could Be The Start Of Something Good
TTITLE7=Seven Come Eleven
TTITLE8=On Green Dolphin Street
TTITLE9=Giant Steps
TTITLE10=They Say That Falling In Love Is Wonderful
TTITLE11=Stompin' At The Savoy
EXTD=
EXTT0=
EXTT1=
EXTT2=
EXTT3=
EXTT4=
EXTT5=
EXTT6=
EXTT7=
EXTT8=
EXTT9=
EXTT10=
EXTT11=
PLAYORDER=
